Patient4_TMGait_0pt7_02_right_29_EMG.mot
version=1
nRows=30
nColumns=33
inDegrees=no
endheader
time	1LAddLong	2LGlutMax	3LGlutMed	4LIliopsoas	5LSemiMemb	6LBicFemLong	7LRecFem	8LVastMed	9LVastLat	10LGasMed	11LTibAnt	12lTibPost	13LPeroneusLong	14LSol	15LExtDigLong	16LFlexDigLong	17RAddLong	18RGlutMax	19RGlutMed	20RIliopsoas	21RSemiMemb	22RBicFemLong	23RRecFem	24RVastMed	25RVastLat	26RGasMed	27RTibAnt	28RTibPost	29RPeroneusLong	30RSol	31RExtDigLong	32RFlexDigLong
33.335	0.044708	0.30136	0.13687	0.02243	0.028229	0.20355	-0.031891	-0.008545	0.10162	0.073853	-0.032043	-0.010223	0.095215	0.057373	0.012207	0.003357	0.000305	-0.6897	-0.15366	0.1091	-0.016327	-0.055237	-0.54031	0.066681	0.000763	-0.003052	0.1918	-0.005646	-0.2446	-0.067291	-0.000305	-0.025787
33.336	0.036163	0.28427	0.053406	0.009308	0.048828	-0.09491	0.032349	-0.002747	0.11368	0.05661	-0.011139	0.020905	0.24155	0.022278	0.002899	0.006256	0.025635	-0.75409	-0.12451	0.061798	-0.004425	-0.10239	-0.6192	0.068817	0.001984	0.000763	-0.072327	-0.012054	-0.034943	0.026855	0.000153	-0.022278
33.337	0.018921	0.29968	0.11398	0.021515	0.045471	-0.12466	0.11032	0.01236	0.0383	0.011139	0.030365	0.032654	0.24231	0.002441	0.012512	0.002136	-0.001678	-0.70404	0.000153	-0.0177	-0.002441	-0.097656	-0.6543	0.07431	-0.006866	0.030518	-0.20462	-0.004883	0.096741	-0.041199	-0.001068	-0.020142
33.338	-0.005341	0.27695	0.057678	0.009308	0.042572	0.038147	0.1178	0.019531	0.019379	0.042114	0.025482	0.020752	-0.23972	0.026245	0.026398	0.001831	-0.003052	-0.63477	0.083923	-0.12299	-0.013885	-0.062408	-0.66162	0.033264	-0.005035	0.049591	-0.14297	-0.006104	0.048981	-0.1741	0.004425	-0.02182
33.339	-0.030975	0.31799	0.045166	-0.008698	0.0354	0.11719	0.080261	0.011292	0.061188	0.050812	0.019684	0.017853	0.24368	0.003815	0.005188	0.003357	-0.008087	-0.67474	0.025024	-0.099335	-0.031586	-0.011139	-0.69229	0.043182	0.007629	0.066833	-0.033875	-0.002747	0.06958	-0.16708	-0.000458	-0.023651
33.34	-0.052032	0.29251	0.10391	0.00061	-0.017242	-0.10101	0.076294	0.014496	0.066223	-0.18707	-0.006409	0.010071	0.40024	0.002136	-0.00412	0.005341	0.006409	-0.66269	-0.31143	-0.011139	-0.027008	0.076141	-0.68237	0.010376	-0.007172	0.062561	0.009003	-0.016632	0.094147	-0.13031	-0.003204	-0.016785
33.341	-0.050659	0.26764	0.049438	0.030975	-0.066223	-0.1947	0.083618	0.028381	0.019836	-0.20355	-0.015106	0.013123	0.25787	0.14801	-0.023041	0.003204	0.018158	-0.68512	-0.28793	0.084229	0.003357	0.10803	-0.70572	-0.022736	-0.00412	0.031586	-0.003967	-0.011139	0.049286	-0.16037	-0.000458	-0.014343
33.342	-0.031281	0.25772	-0.025177	0.017395	-0.035248	-0.19974	0.044708	0.032196	0.018463	-0.17166	-0.028534	0.025635	0.46265	0.11063	-0.063171	0.002136	0.04364	-0.65094	-0.17807	0.10757	0.002747	0.19196	-0.70419	0.006104	0.001984	0.019531	-0.036774	-0.010529	-0.53009	-0.27588	0.000916	-0.011902
33.343	-0.011902	0.18143	0.014496	0.012054	-0.036926	-0.35797	-0.001526	0.011139	0.029449	-0.13825	-0.020599	0.023651	0.12314	0.097198	-0.032959	-0.001068	0.071106	-0.67154	-0.22125	0.12955	-0.010376	0.1445	-0.65536	-0.014191	0.000916	-0.03418	-0.050354	-0.041656	-0.58029	-0.41809	-0.001984	-0.019531
33.344	-0.003967	0.16068	0.016632	0.021057	-0.065155	-0.52139	0.00824	-0.015869	0.007324	-0.087585	-0.005798	0.018768	-0.46722	0.067291	-0.004578	-0.016327	0.088501	-0.68695	-0.22079	0.016785	0.008087	0.12955	-0.68665	0.038757	0.003052	-0.058441	-0.038757	-0.096741	-0.17471	-0.32562	0.00061	-0.020752
33.345	-0.013733	0.18601	-0.015564	0.000916	-0.053101	-0.31799	-0.032654	-0.046082	-0.092926	0.001831	0.00946	0.016632	-0.62088	-0.079803	-0.076752	-0.006256	0.10162	-0.69076	-0.19547	-0.16266	0.084534	0.112	-0.70969	0.039215	0.005646	-0.020905	-0.034332	-0.16617	0.21744	-0.21194	-0.001221	-0.028381
33.346	0.007782	0.21774	-0.045624	0.00351	-0.008698	-0.16037	-0.030518	-0.044403	-0.16739	0.069733	0.001678	0.013885	-0.082245	-0.1918	-0.21255	-0.02655	0.10681	-0.68298	-0.23056	-0.31998	0.067596	0.054932	-0.69534	0.027313	0.000916	-0.041504	-0.036621	0.17029	0.1767	0.17899	-0.001831	-0.023041
33.347	0.009003	0.2742	-0.096283	0.008392	-0.050201	0.031891	0.068512	-0.026245	-0.22156	0.065613	-0.016785	-0.045013	0.3241	-0.20798	-0.18127	-0.073853	0.089874	-0.68268	-0.17883	-0.3157	0.08606	0.019226	-0.66986	0.023651	-0.013733	-0.049438	0.000153	0.097809	0.37293	0.56244	-0.001984	-0.032654
33.348	-0.006409	0.26886	-0.042114	-0.008698	-0.063934	0.17746	0.066833	-0.002899	-0.24719	0.00885	-0.014648	0.19791	-0.12619	0.098724	-0.032806	-0.092316	0.04715	-0.7785	-0.009003	-0.25848	0.11322	-0.059509	-0.71182	0.071106	-0.016327	-0.055847	-0.001068	-0.30975	0.16602	0.58212	-0.006256	-0.031433
33.349	0.005493	0.38315	-0.070038	0.001984	0.037537	0.22263	-0.001068	-0.001068	-0.20889	-0.003967	-0.008698	0.17029	-0.5513	0.17181	-0.022888	0.080872	-0.020142	-0.75928	-0.010681	-0.11826	0.1329	-0.040588	-0.7048	0.071869	-0.02182	-0.082397	0.022736	0.040588	-0.052032	0.29419	-0.001526	-0.028534
33.35	0.011749	0.35294	-0.007019	0.008698	0.061798	0.13809	-0.041656	0.004578	-0.18738	0.003815	0.002899	-0.058441	-0.72876	0.001526	-0.014954	0.099182	-0.066528	-0.70938	-0.070801	0.06546	0.13168	-0.062866	-0.65659	0.046387	-0.043488	-0.04837	0.03479	0.30456	-0.20371	0.1268	-0.002136	-0.030518
33.351	0.019379	0.33646	0.001373	-0.006866	0.11826	0.20889	-0.084534	0.014191	-0.22293	-0.015259	0.010986	-0.11231	-0.27802	-0.057831	0.007782	-0.11261	-0.082092	-0.60089	0.016632	0.22553	0.15945	0.014648	-0.60883	0.037537	-0.064697	-0.023804	0.044861	0.11231	-0.083008	0.11261	-0.003204	-0.02533
33.352	0.036163	0.38086	0.067291	0	0.051575	0.27679	-0.040283	0.025482	-0.23117	-0.031281	-0.009003	0.006409	0.20035	-0.047455	-0.020447	0.19791	-0.065918	-0.49194	0.13473	0.35034	0.20554	0.091553	-0.63263	-0.004425	-0.065155	0.019531	0.0383	0.012054	0.10956	0.48706	-0.00351	-0.024719
33.353	0.028992	0.38528	0.081329	0.007172	0.028381	0.38971	-0.028534	0.033417	-0.079346	-0.076599	-0.008392	0.025635	0.31357	-0.09903	-0.052185	-0.00351	-0.026245	-0.44174	0.3064	0.27573	0.18723	0.014954	-0.56976	-0.005493	-0.073395	0.018616	0.008392	-0.02243	0.055237	0.25452	-0.002747	-0.009613
33.354	0.048981	0.32257	0.14435	0.033112	0.080719	0.51071	0.069733	0.006714	0.18677	-0.12848	0.003662	0.038605	0.15366	-0.26062	-0.087433	-0.28793	-0.014648	-0.43747	0.21179	0.016174	0.15228	-0.027161	-0.56549	-0.011597	-0.082397	0.010376	-0.011597	-0.023651	0.2536	0.13412	0.000305	-0.023193
33.355	0.045319	0.2385	0.14786	0.024872	0.063629	0.28595	-0.003052	-0.024872	0.25223	-0.08316	0.00412	0.21744	0.000916	-0.34439	-0.067902	-0.22201	-0.006409	-0.34134	-0.18646	-0.17288	0.20081	-0.017853	-0.63507	0.023956	-0.076904	-0.024719	-0.003662	-0.032043	0.3891	0.11185	0.00473	-0.02533
33.356	0.020905	0.20996	0.018616	0.013428	0.00824	-0.002899	-0.054016	-0.039215	0.22827	0.11871	-0.00412	-0.29709	0.046692	-0.18997	-0.03952	-0.13046	-0.009766	-0.32196	-0.2153	-0.13153	0.28717	-0.056152	-0.5928	-0.00412	-0.076752	-0.034332	0.040131	-0.018768	0.15732	0.038452	-0.002747	-0.034485
33.357	0.011444	0.177	-0.066681	-0.004425	-0.018921	0.016479	-0.11581	-0.049286	0.13763	0.15457	-0.012665	-0.065155	0.224	0.056763	-0.048523	-0.10559	-0.005951	-0.33722	-0.10101	-0.068512	0.27237	-0.038452	-0.63477	0.032043	-0.05249	-0.024109	0.06958	-0.018768	-0.13321	0.002594	-0.000763	-0.031433
33.358	-0.004578	0.19119	-0.052948	-0.002441	0	0.080566	-0.11139	-0.045929	0.16083	0.26199	-0.016785	0.073242	0.24078	0.26657	-0.018311	-0.072784	-0.012512	-0.34149	0.24765	0.13168	0.23819	-0.01236	-0.65445	0.010223	-0.050812	-0.018311	0.0737	-0.032196	-0.22064	0.032806	-0.002747	-0.032349
33.359	-0.022888	0.25177	-0.048065	0.030212	0.035706	0.069885	-0.074005	-0.033722	0.215	0.27695	-0.016937	0.059052	0.63141	0.28854	0.005341	-0.040588	-0.022888	-0.26062	0.27191	0.1445	0.2179	-0.0177	-0.68222	-0.008392	-0.048218	-0.010376	0.04425	0.001221	-0.18906	-0.15182	-0.001678	-0.029297
33.36	-0.031433	0.31845	-0.010834	0.010223	0.036926	-0.13214	-0.053253	-0.026855	0.083008	-0.1001	-0.017395	0.031433	-0.098572	0.3186	0.051575	-0.005798	-0.012512	-0.22217	0.12177	0.10071	0.21179	-0.00946	-0.71991	0.011292	-0.034637	0.030823	-0.006561	0.033569	0.043793	-0.32486	-0.003052	-0.033875
33.361	-0.036316	0.37018	-0.049286	0.006104	-0.003815	-0.3273	-0.089417	-0.043793	-0.085144	-0.64224	-0.018616	0.048981	-0.25772	0.64423	0.036163	0.025482	-0.001526	-0.15488	0.10712	-0.067139	0.22324	-0.029602	-0.79453	-0.011444	-0.036926	0.05127	-0.047913	-0.020905	0.2179	-0.1181	-0.004272	-0.029144
33.362	-0.039368	0.34424	-0.023499	0.003967	-0.038147	-0.32791	-0.10544	-0.040741	-0.071411	-0.44983	0.01236	0.04425	-0.4335	0.63782	-0.056305	-0.001068	-0.008545	-0.1442	0.13016	-0.20462	0.21408	-0.045013	-0.80658	-0.010223	-0.046844	0.024719	-0.020294	-0.030975	0.14221	0.025635	-0.00473	-0.019226
33.363	-0.015564	0.37293	0.023651	0.014191	-0.035858	-0.40756	-0.076752	-0.031586	0.061493	-0.10101	0.029907	0.056763	-0.23117	0.40512	-0.13962	0.002594	-0.001068	-0.16556	0.050354	-0.2562	0.22614	-0.035553	-0.82871	0.000305	-0.013733	-0.010681	-0.010529	-0.022125	0.084839	-0.016327	-0.001984	-0.019836
33.364	-0.002747	0.43884	0.057373	0.015411	0.014038	-0.43427	-0.10666	-0.036163	0.14832	0.13367	0.015106	0.071716	-0.09201	0.18677	-0.12085	0.008545	0.007324	-0.13336	0.20371	-0.12161	0.24658	-0.033875	-0.78705	0.006714	-0.030975	-0.027618	-0.002899	-0.019989	0.15274	-0.083466	-0.002899	-0.033264
